<svg width="200" height="200" viewBox="0 0 132 48" fill="none" xmlns="http://www.w3.org/2000/svg">
<path id="O.Victory" d="M11.07 35.395C10.98 35.395 10.83 35.38 10.62 35.35C10.44 35.35 10.335 35.335 10.305 35.305C10.275 35.245 10.305 35.185 10.395 35.125C10.515 35.095 10.515 35.065 10.395 35.035C10.275 35.005 10.185 34.945 10.125 34.855C10.065 34.795 9.96 34.765 9.81 34.765C9.66 34.765 9.45 34.825 9.18 34.945C8.91 35.065 8.73 35.11 8.64 35.08C8.01 34.93 7.395 34.72 6.795 34.45C6.225 34.21 5.685 33.895 5.175 33.505C5.115 33.445 5.07 33.34 5.04 33.19C5.01 33.04 4.905 32.95 4.725 32.92C4.515 32.89 4.35 32.785 4.23 32.605C4.11 32.395 3.96 32.215 3.78 32.065C3.57 31.885 3.42 31.675 3.33 31.435C3.27 31.165 3.21 30.91 3.15 30.67C3.03 30.34 2.955 30.04 2.925 29.77C2.925 29.5 2.925 29.185 2.925 28.825C2.925 28.585 2.97 28.15 3.06 27.52C3.18 26.89 3.24 26.455 3.24 26.215V26.17C3.45 25.69 3.57 25.36 3.6 25.18C3.66 25 3.705 24.865 3.735 24.775C3.765 24.655 3.855 24.49 4.005 24.28C4.155 24.07 4.425 23.695 4.815 23.155C4.995 22.915 5.1 22.78 5.13 22.75C5.19 22.72 5.28 22.645 5.4 22.525C5.58 22.285 5.79 22 6.03 21.67C6.27 21.34 6.495 21.085 6.705 20.905C7.035 20.635 7.425 20.35 7.875 20.05C8.325 19.72 8.73 19.45 9.09 19.24C9.21 19.15 9.315 19.105 9.405 19.105C9.495 19.075 9.6 19.045 9.72 19.015C9.81 18.985 10.005 18.88 10.305 18.7C10.605 18.49 10.905 18.295 11.205 18.115C11.535 17.935 11.73 17.86 11.79 17.89C11.82 17.89 11.835 17.905 11.835 17.935C11.865 17.935 11.895 17.935 11.925 17.935C11.985 17.935 12.06 17.905 12.15 17.845C12.24 17.755 12.315 17.695 12.375 17.665C12.705 17.455 13.05 17.35 13.41 17.35C13.68 17.32 13.905 17.275 14.085 17.215C14.265 17.155 14.46 17.095 14.67 17.035C14.85 16.975 15.15 16.9 15.57 16.81C15.99 16.72 16.38 16.675 16.74 16.675C16.95 16.675 17.115 16.705 17.235 16.765C17.415 16.855 17.535 16.9 17.595 16.9C17.655 16.9 17.715 16.9 17.775 16.9C17.835 16.87 17.91 16.84 18 16.81C18.09 16.78 18.195 16.765 18.315 16.765C18.375 16.765 18.42 16.795 18.45 16.855C18.51 16.885 18.6 16.96 18.72 17.08C18.75 17.11 18.81 17.125 18.9 17.125C18.96 17.125 19.02 17.11 19.08 17.08C19.17 17.05 19.245 17.035 19.305 17.035C19.455 17.035 19.56 17.095 19.62 17.215C19.71 17.305 19.815 17.365 19.935 17.395C20.085 17.425 20.22 17.455 20.34 17.485C20.46 17.485 20.58 17.515 20.7 17.575C20.97 17.695 21.255 17.905 21.555 18.205C21.885 18.475 22.08 18.775 22.14 19.105C22.14 19.165 22.14 19.255 22.14 19.375C22.14 19.465 22.08 19.465 21.96 19.375C21.54 18.985 21.135 18.655 20.745 18.385C20.385 18.085 19.89 17.935 19.26 17.935C18.69 17.935 17.985 17.995 17.145 18.115C16.305 18.235 15.495 18.415 14.715 18.655C13.935 18.865 13.32 19.12 12.87 19.42C12.72 19.54 12.615 19.63 12.555 19.69C12.495 19.72 12.345 19.735 12.105 19.735C11.805 19.735 11.505 19.855 11.205 20.095C10.935 20.305 10.665 20.485 10.395 20.635C10.275 20.695 10.125 20.74 9.945 20.77C9.765 20.8 9.63 20.86 9.54 20.95C9.48 21.01 9.45 21.055 9.45 21.085C9.45 21.115 9.42 21.16 9.36 21.22L9.315 21.265C8.955 21.625 8.595 21.895 8.235 22.075C7.905 22.255 7.53 22.51 7.11 22.84C7.08 22.84 6.99 22.96 6.84 23.2C6.69 23.41 6.54 23.62 6.39 23.83C6.24 24.04 6.135 24.16 6.075 24.19C5.835 24.25 5.625 24.415 5.445 24.685C5.265 24.925 5.13 25.135 5.04 25.315C4.95 25.435 4.83 25.585 4.68 25.765C4.56 25.915 4.455 26.065 4.365 26.215C4.155 26.605 4.005 27.025 3.915 27.475C3.825 27.925 3.78 28.39 3.78 28.87C3.78 29.08 3.78 29.305 3.78 29.545C3.81 29.785 3.84 30.025 3.87 30.265C3.9 30.475 3.915 30.625 3.915 30.715C3.915 30.775 3.99 30.88 4.14 31.03C4.29 31.21 4.41 31.405 4.5 31.615C4.62 31.795 4.755 31.96 4.905 32.11C4.935 32.14 4.95 32.185 4.95 32.245C4.95 32.485 4.98 32.62 5.04 32.65C5.13 32.68 5.22 32.695 5.31 32.695C5.4 32.695 5.475 32.8 5.535 33.01L5.625 33.1C5.985 33.16 6.315 33.28 6.615 33.46C6.915 33.61 7.23 33.73 7.56 33.82C7.77 33.85 7.98 33.895 8.19 33.955C8.43 33.985 8.64 34.03 8.82 34.09C8.91 34.12 8.985 34.165 9.045 34.225C9.135 34.315 9.195 34.375 9.225 34.405H9.27C9.33 34.405 9.375 34.375 9.405 34.315C9.465 34.255 9.54 34.225 9.63 34.225C9.72 34.225 9.84 34.21 9.99 34.18C10.14 34.18 10.245 34.21 10.305 34.27C10.455 34.36 10.59 34.405 10.71 34.405C10.83 34.405 10.95 34.375 11.07 34.315C11.13 34.285 11.28 34.27 11.52 34.27C11.79 34.27 11.94 34.27 11.97 34.27C12.03 34.3 12.105 34.345 12.195 34.405C12.315 34.465 12.42 34.48 12.51 34.45C12.57 34.39 12.585 34.345 12.555 34.315C12.555 34.285 12.615 34.255 12.735 34.225L13.59 34.135C13.65 34.105 13.71 34.09 13.77 34.09C14.04 34.06 14.355 34 14.715 33.91C15.105 33.79 15.405 33.715 15.615 33.685C15.975 33.685 16.35 33.565 16.74 33.325C17.19 33.085 17.655 32.875 18.135 32.695C18.615 32.485 19.095 32.29 19.575 32.11C19.905 31.99 20.19 31.84 20.43 31.66C20.67 31.48 20.91 31.3 21.15 31.12C21.39 30.97 21.615 30.82 21.825 30.67C22.065 30.52 22.275 30.37 22.455 30.22C22.545 30.13 22.62 30.025 22.68 29.905C22.74 29.785 22.83 29.695 22.95 29.635C23.73 29.185 24.36 28.675 24.84 28.105C25.32 27.535 25.89 26.965 26.55 26.395C26.7 26.245 26.805 26.125 26.865 26.035C26.925 25.945 27 25.825 27.09 25.675C27.3 25.345 27.57 25.015 27.9 24.685C28.23 24.325 28.5 23.905 28.71 23.425C28.8 23.215 28.935 23.08 29.115 23.02C29.295 22.93 29.4 22.81 29.43 22.66C29.43 22.66 29.385 22.54 29.295 22.3C29.235 22.03 29.28 21.85 29.43 21.76C29.58 21.67 29.655 21.565 29.655 21.445C29.655 21.265 29.565 21.1 29.385 20.95C29.235 20.77 29.16 20.62 29.16 20.5C29.19 19.72 29.13 19.105 28.98 18.655C28.86 18.175 28.635 17.74 28.305 17.35C27.975 16.96 27.555 16.525 27.045 16.045C26.475 15.505 25.695 15.115 24.705 14.875C23.745 14.605 22.875 14.425 22.095 14.335C21.915 14.335 21.72 14.29 21.51 14.2C21.33 14.11 21.15 14.095 20.97 14.155C20.91 14.185 20.76 14.2 20.52 14.2C20.31 14.2 20.07 14.2 19.8 14.2C19.53 14.17 19.365 14.14 19.305 14.11C19.005 14.05 18.735 14.065 18.495 14.155C18.255 14.215 18 14.245 17.73 14.245C17.55 14.245 17.415 14.23 17.325 14.2C17.235 14.17 17.145 14.155 17.055 14.155C16.935 14.155 16.83 14.185 16.74 14.245C16.68 14.275 16.575 14.32 16.425 14.38C15.585 14.68 14.685 14.905 13.725 15.055C13.695 15.055 13.47 15.115 13.05 15.235C12.63 15.355 12.21 15.49 11.79 15.64C11.37 15.76 11.115 15.835 11.025 15.865C10.725 15.985 10.44 16.09 10.17 16.18C9.9 16.27 9.645 16.405 9.405 16.585C9.345 16.615 9.27 16.66 9.18 16.72C9.09 16.78 9 16.81 8.91 16.81C8.7 16.84 8.52 16.915 8.37 17.035C8.25 17.125 8.115 17.215 7.965 17.305C7.845 17.395 7.68 17.455 7.47 17.485C7.29 17.515 7.14 17.575 7.02 17.665C6.96 17.695 6.93 17.785 6.93 17.935C6.96 18.085 6.93 18.175 6.84 18.205C6.72 18.265 6.57 18.31 6.39 18.34C6.24 18.34 6.09 18.355 5.94 18.385C5.73 18.415 5.52 18.565 5.31 18.835C5.1 19.075 4.92 19.27 4.77 19.42C4.59 19.54 4.35 19.765 4.05 20.095C3.75 20.395 3.51 20.605 3.33 20.725C3.18 20.815 3.03 20.875 2.88 20.905C2.73 20.935 2.64 21.085 2.61 21.355L2.025 21.895C1.815 21.925 1.68 22.015 1.62 22.165C1.56 22.285 1.455 22.405 1.305 22.525C1.065 22.705 0.915 22.84 0.855 22.93C0.825 22.99 0.69 23.125 0.45 23.335C0.24 23.545 0.045 23.65 -0.135 23.65C-0.225 23.65 -0.27 23.605 -0.27 23.515C-0.27 23.305 -0.135 23.005 0.135 22.615C0.405 22.465 0.6 22.255 0.72 21.985C0.84 21.715 1.02 21.49 1.26 21.31C1.5 21.16 1.68 20.995 1.8 20.815C1.95 20.635 2.1 20.44 2.25 20.23C2.31 20.17 2.355 20.14 2.385 20.14C2.625 19.96 2.82 19.765 2.97 19.555C3.15 19.315 3.375 19.135 3.645 19.015C3.915 18.895 4.14 18.745 4.32 18.565C4.5 18.355 4.695 18.175 4.905 18.025C6.375 17.005 7.98 16.09 9.72 15.28C11.46 14.44 13.2 13.915 14.94 13.705C15.18 13.675 15.39 13.645 15.57 13.615C15.78 13.555 15.99 13.51 16.2 13.48C16.29 13.45 16.485 13.42 16.785 13.39C17.115 13.33 17.43 13.285 17.73 13.255C18.06 13.195 18.255 13.18 18.315 13.21C18.405 13.21 18.495 13.225 18.585 13.255C18.675 13.255 18.75 13.255 18.81 13.255C19.02 13.255 19.185 13.24 19.305 13.21C19.455 13.18 19.635 13.165 19.845 13.165C21.135 13.195 22.35 13.36 23.49 13.66C24.63 13.96 25.74 14.455 26.82 15.145C26.97 15.265 27.09 15.385 27.18 15.505C27.27 15.595 27.405 15.67 27.585 15.73C27.735 15.82 27.885 15.955 28.035 16.135C28.245 16.435 28.485 16.735 28.755 17.035C29.025 17.305 29.25 17.605 29.43 17.935C29.76 18.535 30 19.165 30.15 19.825C30.33 20.485 30.42 21.145 30.42 21.805C30.42 24.115 29.655 26.08 28.125 27.7C28.005 27.82 27.81 27.895 27.54 27.925C27.3 27.925 27.15 27.955 27.09 28.015C27.06 28.045 27.105 28.135 27.225 28.285C27.345 28.435 27.375 28.54 27.315 28.6C26.895 29.02 26.46 29.41 26.01 29.77C25.98 29.8 25.95 29.755 25.92 29.635C25.89 29.485 25.83 29.395 25.74 29.365C25.65 29.305 25.59 29.395 25.56 29.635C25.56 29.875 25.53 30.025 25.47 30.085L25.065 29.635C25.005 29.665 25.005 29.815 25.065 30.085C25.125 30.355 25.125 30.52 25.065 30.58C24.405 31.06 23.73 31.51 23.04 31.93C22.35 32.35 21.615 32.74 20.835 33.1C19.275 33.85 17.64 34.42 15.93 34.81C14.25 35.23 12.63 35.425 11.07 35.395ZM35.2364 33.55C35.0264 33.55 34.6964 33.37 34.2464 33.01C33.8264 32.65 33.6164 32.365 33.6164 32.155C33.6164 32.065 33.8114 31.945 34.2014 31.795C34.6214 31.615 35.0564 31.435 35.5064 31.255C35.9564 31.075 36.2414 30.94 36.3614 30.85V30.895C36.3614 31.015 36.3014 31.165 36.1814 31.345C36.0614 31.525 35.9714 31.645 35.9114 31.705L35.9564 32.02L35.9114 32.38C35.8214 32.5 35.7464 32.725 35.6864 33.055C35.6264 33.385 35.4764 33.55 35.2364 33.55ZM42.4396 36.25L42.1246 36.07L41.9896 35.53C42.0796 35.35 42.2296 35.035 42.4396 34.585C42.6496 34.135 42.8596 33.685 43.0696 33.235C43.3096 32.785 43.4896 32.53 43.6096 32.47L43.6546 31.255C43.2046 31.615 42.8446 32.02 42.5746 32.47C42.3346 32.92 42.0196 33.355 41.6296 33.775C41.5996 33.805 41.5396 33.895 41.4496 34.045C41.3596 34.195 41.2846 34.285 41.2246 34.315C40.8646 34.465 40.6396 34.54 40.5496 34.54C40.3696 34.54 40.3546 34.42 40.5046 34.18C40.6846 33.94 40.9396 33.625 41.2696 33.235C41.8696 32.605 42.3946 32.02 42.8446 31.48C43.3246 30.94 43.7146 30.52 44.0146 30.22C43.8946 29.98 43.8346 29.68 43.8346 29.32C43.8346 28.84 43.9546 28.36 44.1946 27.88L43.9696 27.925L43.6996 26.17L43.7896 25.99C43.8196 25.9 43.8346 25.81 43.8346 25.72C43.8346 25.6 43.8346 25.48 43.8346 25.36C43.8346 24.82 43.7596 24.235 43.6096 23.605C43.4896 22.975 43.4296 22.405 43.4296 21.895C43.4296 21.745 43.4296 21.625 43.4296 21.535C43.4596 21.415 43.4896 21.295 43.5196 21.175L43.2046 20.725V20.635C43.2046 20.545 43.1446 20.455 43.0246 20.365C42.9346 20.275 42.8896 20.23 42.8896 20.23L42.7096 19.51V19.42C42.7096 19.33 42.6646 19.255 42.5746 19.195C42.5146 19.135 42.4546 19.045 42.3946 18.925L41.8546 17.035C41.8546 17.035 41.8696 16.975 41.8996 16.855C41.9296 16.705 41.9296 16.57 41.8996 16.45C41.8996 16.39 41.8096 16.285 41.6296 16.135C41.4796 15.955 41.4046 15.865 41.4046 15.865C41.4046 15.865 41.3596 15.85 41.2696 15.82C41.1796 15.79 41.1196 15.82 41.0896 15.91C41.0896 15.91 41.0596 15.985 40.9996 16.135C40.9396 16.255 40.9246 16.375 40.9546 16.495C41.0146 16.915 41.0446 17.38 41.0446 17.89C41.0446 18.16 40.9996 18.295 40.9096 18.295C40.8496 18.295 40.7896 18.235 40.7296 18.115C40.6696 17.965 40.6546 17.83 40.6846 17.71C40.6846 17.62 40.6546 17.485 40.5946 17.305C40.5046 16.975 40.3846 16.585 40.2346 16.135C40.1146 15.655 39.9796 15.31 39.8296 15.1L39.4246 14.83C39.2146 14.68 39.0046 14.485 38.7946 14.245C38.6146 14.005 38.5096 13.765 38.4796 13.525C38.4796 13.525 38.5546 13.375 38.7046 13.075C38.8846 12.775 39.1246 12.61 39.4246 12.58H39.5596C39.8896 12.58 40.1896 12.82 40.4596 13.3L40.7746 13.795C40.9846 13.795 41.1646 13.945 41.3146 14.245C41.4946 14.515 41.6446 14.815 41.7646 15.145C41.8846 15.475 42.0046 15.715 42.1246 15.865C42.3346 16.195 42.4846 16.435 42.5746 16.585C42.6646 16.705 42.7396 16.855 42.7996 17.035C42.8596 17.185 42.9496 17.47 43.0696 17.89C43.1896 18.01 43.2496 18.13 43.2496 18.25C43.2796 18.34 43.3696 18.43 43.5196 18.52L44.0596 19.555L44.5546 21.04C44.6746 21.04 44.7946 21.31 44.9146 21.85C45.0646 22.36 45.1846 22.9 45.2746 23.47C45.3946 24.01 45.4546 24.37 45.4546 24.55L45.5896 24.64V24.775C45.5596 24.835 45.5446 24.91 45.5446 25C45.5746 25.09 45.5896 25.165 45.5896 25.225L45.5446 25.36L45.7246 25.585L45.6796 25.72C45.8296 26.05 45.9196 26.41 45.9496 26.8C45.9796 27.19 46.0096 27.565 46.0396 27.925L45.7696 28.375L45.8596 28.78C46.0096 28.69 46.0846 28.57 46.0846 28.42C46.0846 28.24 46.1446 28.09 46.2646 27.97C46.4146 27.82 46.7146 27.535 47.1646 27.115C47.6446 26.665 48.1696 26.185 48.7396 25.675C49.3096 25.135 49.8046 24.655 50.2246 24.235C50.6446 23.785 50.8696 23.5 50.8996 23.38L51.2146 23.2L51.3046 23.245L51.7996 22.525C51.9796 22.525 52.2796 22.33 52.6996 21.94C53.1496 21.55 53.5846 21.13 54.0046 20.68C54.4246 20.23 54.6946 19.93 54.8146 19.78L54.9946 19.825L55.1746 19.465C55.2946 19.285 55.5496 19.045 55.9396 18.745C56.3596 18.445 56.8096 18.13 57.2896 17.8C57.7696 17.47 58.2046 17.185 58.5946 16.945C59.0146 16.705 59.2846 16.555 59.4046 16.495L59.6296 15.91C60.2296 15.46 60.8146 15.025 61.3846 14.605C61.9546 14.155 62.5396 13.735 63.1396 13.345L63.2296 13.39L66.5146 11.365L66.8296 11.41C66.9196 11.41 67.0096 11.35 67.0996 11.23C67.2196 11.11 67.2946 11.02 67.3246 10.96L67.7296 11.185L68.2246 10.78L68.5846 11.005C68.7946 11.005 68.8696 10.87 68.8096 10.6L69.3946 10.33C69.6046 10.36 69.7246 10.375 69.7546 10.375C69.8146 10.345 69.9046 10.33 70.0246 10.33C70.1746 10.33 70.3246 10.345 70.4746 10.375C70.6546 10.375 70.8196 10.375 70.9696 10.375C71.1196 10.375 71.2396 10.375 71.3296 10.375C71.4496 10.345 71.5696 10.315 71.6896 10.285C71.7796 10.255 71.9296 10.315 72.1396 10.465C72.3496 10.615 72.5146 10.72 72.6346 10.78C73.2946 11.14 73.6246 11.755 73.6246 12.625C73.6246 13.135 73.4146 13.75 72.9946 14.47C72.5746 15.19 72.0796 15.895 71.5096 16.585C70.9396 17.275 70.4296 17.86 69.9796 18.34C69.9496 18.37 69.8296 18.445 69.6196 18.565C69.4396 18.655 69.2746 18.7 69.1246 18.7C69.0646 18.7 69.0346 18.67 69.0346 18.61C69.0346 18.55 69.0646 18.46 69.1246 18.34C69.1846 18.22 69.3046 18.055 69.4846 17.845C69.9046 17.335 70.3546 16.765 70.8346 16.135C71.3146 15.505 71.7196 14.89 72.0496 14.29C72.4096 13.66 72.5896 13.15 72.5896 12.76C72.5896 12.01 72.2446 11.56 71.5546 11.41L71.2846 11.635L70.8346 11.545L70.7896 11.635C70.7596 11.635 70.7296 11.62 70.6996 11.59C70.6996 11.53 70.6846 11.5 70.6546 11.5L70.6096 11.59L70.4296 11.365C70.3996 11.515 70.2796 11.665 70.0696 11.815C69.8896 11.965 69.7246 11.995 69.5746 11.905L69.3046 12.13L69.0796 11.95C68.9896 11.95 68.8696 12.01 68.7196 12.13C68.5696 12.22 68.4646 12.295 68.4046 12.355L67.9996 12.085L67.7746 12.175L67.6846 12.58H67.6396C66.7996 12.97 65.8996 13.42 64.9396 13.93C63.9796 14.41 63.1096 14.92 62.3296 15.46C61.9696 15.7 61.4446 16.06 60.7546 16.54C60.0646 16.99 59.3296 17.5 58.5496 18.07C57.7996 18.61 57.1096 19.15 56.4796 19.69C55.8796 20.2 55.4896 20.62 55.3096 20.95L55.0846 21.04C54.8746 21.25 54.7096 21.475 54.5896 21.715L52.8346 23.11L52.7446 23.02C51.9346 23.71 51.1996 24.415 50.5396 25.135C49.9096 25.825 49.2346 26.545 48.5146 27.295C47.8246 28.045 46.9696 28.825 45.9496 29.635L45.7696 30.535L45.9496 30.805L45.6346 31.57C45.6946 31.63 45.7246 31.69 45.7246 31.75C45.7246 31.9 45.6796 32.095 45.5896 32.335C45.5296 32.545 45.4696 32.71 45.4096 32.83C45.3196 33.4 45.1996 33.97 45.0496 34.54C44.9296 35.11 44.6746 35.56 44.2846 35.89C43.9246 36.22 43.3096 36.34 42.4396 36.25ZM61.9998 19.96C61.9098 19.96 61.8198 19.93 61.7298 19.87C61.6698 19.81 61.5798 19.735 61.4598 19.645C61.3998 19.615 61.3248 19.585 61.2348 19.555C61.1748 19.495 61.1448 19.405 61.1448 19.285C61.1148 19.255 61.0548 19.24 60.9648 19.24C60.8148 19.24 60.7398 19.135 60.7398 18.925C60.7398 18.685 60.8598 18.52 61.0998 18.43L61.3248 18.25V18.295L61.5048 18.07H61.5948C61.7748 18.07 61.8948 17.98 61.9548 17.8C62.0448 17.62 62.2248 17.5 62.4948 17.44C62.6748 17.38 62.8248 17.395 62.9448 17.485C63.0648 17.575 63.2148 17.62 63.3948 17.62C63.5748 17.62 63.7698 17.56 63.9798 17.44L64.6548 17.305C64.7448 17.305 64.7898 17.335 64.7898 17.395C64.7898 17.455 64.6998 17.53 64.5198 17.62C64.3698 17.71 64.2648 17.785 64.2048 17.845L64.1598 17.89L64.1148 17.98L63.9348 18.205C63.7548 18.415 63.5448 18.67 63.3048 18.97C63.0948 19.24 62.8698 19.465 62.6298 19.645C62.3598 19.855 62.1498 19.96 61.9998 19.96ZM55.1598 34.135C54.9798 34.135 54.8898 34.03 54.8898 33.82C54.8898 33.67 54.9348 33.49 55.0248 33.28C55.2648 32.77 55.5348 32.05 55.8348 31.12C56.1648 30.19 56.5698 29.395 57.0498 28.735C57.3798 28.075 57.6798 27.43 57.9498 26.8C58.2498 26.14 58.5348 25.48 58.8048 24.82C58.8048 24.82 58.7748 24.805 58.7148 24.775C58.6848 24.715 58.6698 24.655 58.6698 24.595C58.4898 24.475 58.2948 24.31 58.0848 24.1C57.9048 23.86 57.8898 23.62 58.0398 23.38C58.0998 23.32 58.1448 23.29 58.1748 23.29C58.2048 23.29 58.2198 23.29 58.2198 23.29C58.2198 23.26 58.2048 23.245 58.1748 23.245C58.1748 23.215 58.1748 23.2 58.1748 23.2C58.1748 23.08 58.2348 23.005 58.3548 22.975C58.4748 22.945 58.5348 22.9 58.5348 22.84C58.5948 22.42 58.9548 22.105 59.6148 21.895C60.2748 21.685 60.8598 21.58 61.3698 21.58C61.8798 21.58 62.1348 21.655 62.1348 21.805C62.1348 21.865 62.0448 21.97 61.8648 22.12C61.7748 22.18 61.6248 22.315 61.4148 22.525C61.2048 22.735 61.0098 22.99 60.8298 23.29L60.4698 23.83C60.4398 23.89 60.3948 23.965 60.3348 24.055C60.3048 24.115 60.2598 24.175 60.1998 24.235C59.7198 25.105 59.3298 25.84 59.0298 26.44C58.7298 27.04 58.3698 27.805 57.9498 28.735C57.8898 28.915 57.8598 29.035 57.8598 29.095C57.8598 29.305 57.9798 29.41 58.2198 29.41C58.3998 29.41 58.5798 29.365 58.7598 29.275L59.2098 29.095C59.9298 28.435 60.6798 27.88 61.4598 27.43C61.4898 27.43 61.5048 27.43 61.5048 27.43C61.5348 27.4 61.5648 27.385 61.5948 27.385C61.6848 27.385 61.7448 27.445 61.7748 27.565C61.8048 27.655 61.7748 27.73 61.6848 27.79C60.8148 28.27 60.0048 28.885 59.2548 29.635C59.2248 29.695 59.1948 29.755 59.1648 29.815C59.1348 29.875 59.0898 29.935 59.0298 29.995C58.9698 30.055 58.8798 30.16 58.7598 30.31C58.6698 30.46 58.6248 30.55 58.6248 30.58C58.5948 30.67 58.5498 30.7 58.4898 30.67C58.4598 30.64 58.3698 30.685 58.2198 30.805C58.1898 30.835 58.1598 30.895 58.1298 30.985C58.1298 31.075 58.1148 31.15 58.0848 31.21C58.0548 31.3 57.9948 31.375 57.9048 31.435C57.8448 31.465 57.8148 31.495 57.8148 31.525C57.7848 31.645 57.7248 31.72 57.6348 31.75C57.5748 31.75 57.5148 31.78 57.4548 31.84C57.4248 31.87 57.4248 31.915 57.4548 31.975C57.4848 32.035 57.4698 32.095 57.4098 32.155C57.3798 32.245 57.3498 32.29 57.3198 32.29C57.2898 32.26 57.2448 32.275 57.1848 32.335C57.0648 32.455 56.9748 32.515 56.9148 32.515C56.7348 32.575 56.6598 32.62 56.6898 32.65C56.7498 32.68 56.7948 32.71 56.8248 32.74C56.8848 32.74 56.8398 32.785 56.6898 32.875C56.6298 32.905 56.5698 32.995 56.5098 33.145C56.4498 33.265 56.3898 33.355 56.3298 33.415C56.2398 33.475 56.1498 33.52 56.0598 33.55C55.9998 33.58 55.9248 33.64 55.8348 33.73C55.5648 34 55.3398 34.135 55.1598 34.135ZM66.9045 34.135C65.7945 34.135 64.9545 33.94 64.3845 33.55C63.8145 33.16 63.4245 32.695 63.2145 32.155C63.0045 31.615 62.9445 31 63.0345 30.31L63.1245 30.175C63.1845 30.085 63.2295 29.965 63.2595 29.815C63.2895 29.665 63.3195 29.575 63.3495 29.545L63.7095 29.635C63.7695 29.665 63.8145 29.62 63.8445 29.5C63.8745 29.38 63.8595 29.335 63.7995 29.365C63.6195 29.395 63.5295 29.425 63.5295 29.455C63.5295 29.485 63.4995 29.425 63.4395 29.275L63.5745 29.185L63.5295 29.14C63.5295 29.08 63.5595 29.05 63.6195 29.05L63.5295 28.915C63.5295 28.915 63.6495 28.93 63.8895 28.96C64.1595 28.96 64.2645 28.93 64.2045 28.87C64.2345 28.87 64.2195 28.855 64.1595 28.825C64.0995 28.765 64.0695 28.72 64.0695 28.69C64.0395 28.72 64.0245 28.72 64.0245 28.69C64.0245 28.63 63.9195 28.63 63.7095 28.69C63.6195 28.72 63.5745 28.705 63.5745 28.645C63.5745 28.585 63.5745 28.555 63.5745 28.555C63.6645 28.525 63.7545 28.495 63.8445 28.465C63.9345 28.405 63.9945 28.315 64.0245 28.195C64.0545 27.895 64.0845 27.73 64.1145 27.7C64.1445 27.67 64.1745 27.625 64.2045 27.565C64.2345 27.505 64.2795 27.43 64.3395 27.34C64.3995 27.22 64.4445 27.16 64.4745 27.16C64.4445 27.13 64.4295 27.085 64.4295 27.025C64.4295 26.875 64.5345 26.815 64.7445 26.845C64.9845 26.875 65.0595 26.785 64.9695 26.575C64.8795 26.455 64.9245 26.395 65.1045 26.395L65.0595 26.35C65.1795 26.29 65.2545 26.26 65.2845 26.26C65.3445 26.23 65.3145 26.17 65.1945 26.08L65.3745 25.675C65.4045 25.615 65.4645 25.525 65.5545 25.405C65.6745 25.255 65.8545 25.105 66.0945 24.955C66.0945 24.955 66.0795 24.97 66.0495 25C66.0495 25 66.0495 25.015 66.0495 25.045H66.0945C66.1845 25.045 66.3495 24.955 66.5895 24.775C66.5595 24.745 66.4995 24.73 66.4095 24.73C66.3495 24.7 66.3045 24.67 66.2745 24.64C66.2445 24.55 66.3945 24.355 66.7245 24.055C67.0545 23.755 67.4145 23.47 67.8045 23.2C68.1945 22.9 68.4345 22.72 68.5245 22.66C68.9745 22.42 69.4695 22.225 70.0095 22.075C70.5795 21.895 71.0745 21.85 71.4945 21.94C71.5845 21.97 71.7195 22.09 71.8995 22.3C72.1095 22.51 72.2595 22.57 72.3495 22.48C72.6195 22.24 72.9345 22 73.2945 21.76C73.6545 21.52 73.8645 21.415 73.9245 21.445C74.0745 21.475 74.2245 21.535 74.3745 21.625C74.5245 21.685 74.5995 21.865 74.5995 22.165C74.5995 22.375 74.5845 22.555 74.5545 22.705C74.5245 22.885 74.4495 23.035 74.3295 23.155C74.2095 23.275 74.0895 23.41 73.9695 23.56C73.8495 23.74 73.6245 24.025 73.2945 24.415C72.9945 24.775 72.7695 25 72.6195 25.09C72.5295 25.12 72.4245 25.21 72.3045 25.36C72.2145 25.48 72.0945 25.6 71.9445 25.72C71.8245 25.81 71.6745 25.885 71.4945 25.945C71.3445 25.975 71.2395 26.005 71.1795 26.035C71.1195 26.065 71.0145 26.08 70.8645 26.08C70.7445 26.05 70.7145 25.99 70.7745 25.9C70.8045 25.87 70.8045 25.84 70.7745 25.81C70.7745 25.75 70.7745 25.705 70.7745 25.675C70.8045 25.615 70.8495 25.57 70.9095 25.54C70.9695 25.51 71.0145 25.465 71.0445 25.405C71.0745 25.375 71.1495 25.27 71.2695 25.09C71.4195 24.91 71.4945 24.805 71.4945 24.775C71.4645 24.745 71.4645 24.715 71.4945 24.685C71.5245 24.625 71.5395 24.58 71.5395 24.55C71.5695 24.52 71.5845 24.475 71.5845 24.415C71.5845 24.355 71.6145 24.325 71.6745 24.325C71.7945 24.295 71.8545 24.25 71.8545 24.19C71.8545 23.95 71.8695 23.725 71.8995 23.515C71.9595 23.305 71.9445 23.125 71.8545 22.975C71.7345 22.735 71.5095 22.615 71.1795 22.615C70.7295 22.615 70.2045 22.81 69.6045 23.2C69.0045 23.56 68.5995 23.86 68.3895 24.1C67.4295 25.18 66.6495 26.395 66.0495 27.745C65.4495 29.095 65.2095 30.295 65.3295 31.345C65.3895 31.855 65.5995 32.275 65.9595 32.605C66.3195 32.935 66.7245 33.1 67.1745 33.1H67.9395C68.0295 33.1 68.1195 33.1 68.2095 33.1C68.3295 33.07 68.4495 33.04 68.5695 33.01C68.7495 32.95 68.8845 32.92 68.9745 32.92C69.1245 32.77 69.2145 32.77 69.2445 32.92C69.4845 32.8 69.5895 32.755 69.5595 32.785C69.5295 32.815 69.5745 32.815 69.6945 32.785C70.2945 32.635 70.8795 32.38 71.4495 32.02C72.0195 31.66 72.5445 31.3 73.0245 30.94C73.1145 30.88 73.2645 30.79 73.4745 30.67C73.6845 30.55 73.8345 30.46 73.9245 30.4C73.9845 30.31 74.0295 30.235 74.0595 30.175C74.1195 30.085 74.1945 30.025 74.2845 29.995C74.3445 29.905 74.4195 29.815 74.5095 29.725C74.5995 29.605 74.6595 29.53 74.6895 29.5C74.8395 29.44 74.8845 29.395 74.8245 29.365C74.7645 29.305 74.8395 29.23 75.0495 29.14C75.1095 29.11 75.1695 29.095 75.2295 29.095C75.2895 29.095 75.3195 29.125 75.3195 29.185C75.3195 29.245 75.2295 29.41 75.0495 29.68C74.9295 29.89 74.7045 30.16 74.3745 30.49L73.9245 30.94L73.3845 31.21C73.3245 31.27 73.2945 31.33 73.2945 31.39C73.2945 31.42 73.2645 31.465 73.2045 31.525C72.3645 32.275 71.4045 32.905 70.3245 33.415C69.2745 33.895 68.1345 34.135 66.9045 34.135ZM77.5199 34.135C77.3399 34.135 77.2499 34.03 77.2499 33.82C77.2499 33.67 77.2949 33.49 77.3849 33.28C77.6249 32.77 77.8949 32.05 78.1949 31.12C78.5249 30.19 78.9299 29.395 79.4099 28.735L81.6599 24.1C81.4799 24.1 81.2999 24.145 81.1199 24.235C80.9699 24.325 80.8949 24.4 80.8949 24.46C80.8949 24.58 80.7299 24.7 80.3999 24.82C80.0699 24.94 79.8899 25.015 79.8599 25.045C79.4099 25.165 78.9899 25.3 78.5999 25.45C78.2999 25.78 77.9999 26.11 77.6999 26.44C77.4299 26.77 77.1749 27.1 76.9349 27.43C76.9049 27.46 76.8749 27.475 76.8449 27.475C76.5749 27.775 76.3499 28 76.1699 28.15C75.9899 28.3 75.7949 28.435 75.5849 28.555C75.4649 28.645 75.3449 28.675 75.2249 28.645C75.0749 28.585 75.0599 28.525 75.1799 28.465C75.3299 28.405 75.5699 28.195 75.8999 27.835C76.2299 27.475 76.4849 27.205 76.6649 27.025C76.8149 26.935 76.8599 26.935 76.7999 27.025C76.7699 27.115 76.8149 27.1 76.9349 26.98L78.0599 25.54L78.1049 25.495C77.9549 25.405 77.8799 25.165 77.8799 24.775C77.8799 24.475 77.9399 24.235 78.0599 24.055C78.0599 24.025 78.0899 24.01 78.1499 24.01L79.0949 23.74C79.1849 23.74 79.2449 23.725 79.2749 23.695C79.3349 23.635 79.3949 23.56 79.4549 23.47C79.5449 23.35 79.6499 23.2 79.7699 23.02L80.3099 22.3L80.6699 21.805C80.6699 21.715 80.7299 21.61 80.8499 21.49C80.9999 21.34 81.1199 21.235 81.2099 21.175C81.3299 20.995 81.4049 20.86 81.4349 20.77C81.4949 20.65 81.5849 20.5 81.7049 20.32C81.7049 20.29 81.7499 20.275 81.8399 20.275C81.9299 20.245 81.9749 20.215 81.9749 20.185C82.0049 19.885 82.0499 19.75 82.1099 19.78C82.1999 19.78 82.2449 19.735 82.2449 19.645C82.2449 19.555 82.3049 19.48 82.4249 19.42L82.6499 19.15C82.6499 19.12 82.6949 19.06 82.7849 18.97V18.925C82.7849 18.865 82.7849 18.79 82.7849 18.7C82.7849 18.61 82.8149 18.52 82.8749 18.43C82.9349 18.37 82.9799 18.34 83.0099 18.34C83.0399 18.34 83.0549 18.34 83.0549 18.34C83.0549 18.31 83.0399 18.295 83.0099 18.295C83.0099 18.265 83.0099 18.25 83.0099 18.25C83.0099 18.13 83.0699 18.055 83.1899 18.025C83.3099 17.995 83.3699 17.95 83.3699 17.89C83.4299 17.47 83.7899 17.155 84.4499 16.945C85.1099 16.735 85.6949 16.63 86.2049 16.63C86.7149 16.63 86.9699 16.705 86.9699 16.855C86.9699 16.915 86.8799 17.02 86.6999 17.17C86.6099 17.2 86.4599 17.335 86.2499 17.575C86.0399 17.785 85.8449 18.04 85.6649 18.34L85.3049 18.88C85.2749 18.94 85.2299 19.015 85.1699 19.105C85.1399 19.165 85.0949 19.225 85.0349 19.285C84.8249 19.645 84.5399 20.155 84.1799 20.815C83.8499 21.445 83.4899 22.15 83.0999 22.93L84.2699 22.795C84.3599 22.795 84.3899 22.81 84.3599 22.84C84.3599 22.87 84.4049 22.87 84.4949 22.84C84.6449 22.84 84.7499 22.825 84.8099 22.795C84.8699 22.735 84.9749 22.69 85.1249 22.66C85.3649 22.63 85.6349 22.615 85.9349 22.615C86.2649 22.585 86.5199 22.57 86.6999 22.57C86.8199 22.57 86.9699 22.57 87.1499 22.57C87.3299 22.57 87.4649 22.585 87.5549 22.615C87.6149 22.615 87.6299 22.645 87.5999 22.705C87.5999 22.735 87.6149 22.75 87.6449 22.75C87.7049 22.75 87.7499 22.735 87.7799 22.705C87.8399 22.675 87.8999 22.66 87.9599 22.66C87.9899 22.63 88.0349 22.63 88.0949 22.66C88.1849 22.66 88.2449 22.66 88.2749 22.66L88.7249 22.795C88.9049 22.825 88.9949 22.93 88.9949 23.11C89.0249 23.29 88.9499 23.35 88.7699 23.29C88.6499 23.23 88.5449 23.2 88.4549 23.2H87.3299C87.1199 23.2 86.9249 23.2 86.7449 23.2C86.5649 23.2 86.3849 23.215 86.2049 23.245C86.1449 23.275 86.1149 23.245 86.1149 23.155C86.1449 23.065 86.1299 23.02 86.0699 23.02C86.0399 23.02 85.9949 23.065 85.9349 23.155C85.8749 23.215 85.8299 23.245 85.7999 23.245L85.5749 23.38C85.0949 23.5 84.5849 23.635 84.0449 23.785C83.5049 23.905 82.9799 24.04 82.4699 24.19C82.0199 25.12 81.5849 26.005 81.1649 26.845C80.7749 27.655 80.4749 28.285 80.2649 28.735C80.2049 28.915 80.1749 29.02 80.1749 29.05C80.1749 29.29 80.3099 29.41 80.5799 29.41C80.7599 29.41 80.9399 29.365 81.1199 29.275L81.5699 29.095C82.2899 28.435 83.0399 27.88 83.8199 27.43C83.8499 27.43 83.8649 27.43 83.8649 27.43C83.8949 27.4 83.9249 27.385 83.9549 27.385C84.0449 27.385 84.1049 27.445 84.1349 27.565C84.1649 27.655 84.1349 27.73 84.0449 27.79C83.1749 28.27 82.3649 28.885 81.6149 29.635C81.5849 29.695 81.5549 29.755 81.5249 29.815C81.4949 29.875 81.4499 29.935 81.3899 29.995C81.3299 30.055 81.2399 30.16 81.1199 30.31C81.0299 30.46 80.9849 30.55 80.9849 30.58C80.9549 30.67 80.9099 30.7 80.8499 30.67C80.8199 30.64 80.7299 30.685 80.5799 30.805C80.5499 30.835 80.5199 30.895 80.4899 30.985C80.4899 31.075 80.4749 31.15 80.4449 31.21C80.3849 31.3 80.3249 31.375 80.2649 31.435C80.2049 31.465 80.1749 31.495 80.1749 31.525C80.1449 31.645 80.0849 31.72 79.9949 31.75C79.9349 31.75 79.8749 31.78 79.8149 31.84C79.7849 31.84 79.7699 31.855 79.7699 31.885C79.7699 32.155 79.7399 32.275 79.6799 32.245C79.6199 32.215 79.5749 32.245 79.5449 32.335C79.4249 32.455 79.3349 32.515 79.2749 32.515C79.0949 32.575 79.0199 32.62 79.0499 32.65C79.1099 32.68 79.1549 32.71 79.1849 32.74C79.2449 32.74 79.1999 32.785 79.0499 32.875C78.9899 32.905 78.9299 32.995 78.8699 33.145C78.8099 33.265 78.7499 33.355 78.6899 33.415C78.5999 33.475 78.5099 33.52 78.4199 33.55C78.3299 33.58 78.2549 33.64 78.1949 33.73C77.9249 34 77.6999 34.135 77.5199 34.135ZM80.0849 23.56C80.2049 23.53 80.3099 23.5 80.3999 23.47C80.5199 23.44 80.6399 23.395 80.7599 23.335L82.1099 23.11C82.4699 22.39 82.7849 21.745 83.0549 21.175C83.3249 20.575 83.5199 20.14 83.6399 19.87C83.6399 19.87 83.6099 19.855 83.5499 19.825C83.5199 19.765 83.5049 19.705 83.5049 19.645C83.4449 19.615 83.3699 19.57 83.2799 19.51C83.2199 19.45 83.1599 19.405 83.0999 19.375L82.6949 19.78L82.1999 20.455C82.1999 20.485 82.1549 20.515 82.0649 20.545C82.0049 20.545 81.9749 20.56 81.9749 20.59C81.9749 20.68 81.9299 20.77 81.8399 20.86C81.7799 20.95 81.7199 20.98 81.6599 20.95L81.4799 21.4C81.4799 21.49 81.4349 21.565 81.3449 21.625L81.0299 22.03C81.0299 22.06 81.0149 22.09 80.9849 22.12C80.9849 22.12 80.9849 22.15 80.9849 22.21C80.9549 22.27 80.9099 22.345 80.8499 22.435C80.7899 22.525 80.7149 22.615 80.6249 22.705C80.5949 22.705 80.5799 22.72 80.5799 22.75C80.5799 22.75 80.5649 22.75 80.5349 22.75L80.3999 23.02C80.2799 23.08 80.2049 23.11 80.1749 23.11L80.1299 23.2C80.1299 23.38 80.1149 23.5 80.0849 23.56ZM88.6602 34.405C88.0002 34.405 87.4152 34.225 86.9052 33.865C86.4252 33.475 86.1852 32.815 86.1852 31.885C86.1852 31.555 86.2452 31.09 86.3652 30.49C86.4852 29.89 86.6802 29.26 86.9502 28.6C87.1002 28.24 87.2652 27.895 87.4452 27.565C87.6552 27.235 87.8502 26.92 88.0302 26.62C88.0602 26.59 88.1502 26.62 88.3002 26.71C88.4802 26.8 88.5852 26.83 88.6152 26.8C88.6452 26.74 88.6002 26.68 88.4802 26.62C88.3902 26.53 88.3602 26.47 88.3902 26.44C88.4502 26.38 88.4952 26.35 88.5252 26.35C88.5852 26.32 88.6302 26.275 88.6602 26.215C88.6902 26.155 88.7052 26.095 88.7052 26.035C88.7052 25.945 88.6602 25.87 88.5702 25.81C88.5102 25.75 88.5402 25.66 88.6602 25.54C88.8102 25.33 88.9752 25.135 89.1552 24.955C89.3652 24.745 89.5452 24.565 89.6952 24.415C89.7552 24.355 89.8302 24.265 89.9202 24.145C90.0102 23.995 90.0702 23.905 90.1002 23.875L90.1902 23.785C90.2202 23.755 90.2502 23.725 90.2802 23.695C90.2802 23.665 90.2802 23.65 90.2802 23.65C90.3102 23.65 90.3252 23.635 90.3252 23.605C90.3252 23.515 90.2352 23.425 90.0552 23.335C89.8752 23.245 89.7852 23.185 89.7852 23.155C89.7852 23.125 89.7702 23.095 89.7402 23.065C89.7102 23.035 89.6802 22.99 89.6502 22.93C89.6802 22.93 89.7102 22.9 89.7402 22.84C89.8002 22.75 89.8452 22.705 89.8752 22.705C89.9052 22.705 89.9652 22.735 90.0552 22.795C90.1452 22.825 90.2052 22.84 90.2352 22.84C90.2652 22.84 90.2802 22.825 90.2802 22.795C90.3102 22.765 90.3402 22.75 90.3702 22.75C90.4302 22.75 90.5652 22.795 90.7752 22.885C90.9852 22.945 91.1052 22.975 91.1352 22.975C91.1652 22.975 91.2552 22.9 91.4052 22.75C91.5552 22.6 91.6452 22.51 91.6752 22.48C91.7352 22.42 91.7802 22.36 91.8102 22.3C91.8402 22.21 91.9152 22.105 92.0352 21.985H92.0802C92.1102 21.955 92.1252 21.925 92.1252 21.895C92.1252 21.865 92.1252 21.85 92.1252 21.85C92.1852 21.79 92.2302 21.745 92.2602 21.715C92.3202 21.655 92.3652 21.61 92.3952 21.58C92.4252 21.55 92.4402 21.535 92.4402 21.535C92.4702 21.535 92.4852 21.535 92.4852 21.535C92.5152 21.475 92.5452 21.43 92.5752 21.4C92.6352 21.37 92.6802 21.34 92.7102 21.31L92.8002 21.13C92.8602 21.07 93.0702 20.935 93.4302 20.725C93.7902 20.515 94.0602 20.41 94.2402 20.41H94.4652C94.4652 20.41 94.4652 20.425 94.4652 20.455C94.4652 20.455 94.4802 20.455 94.5102 20.455C94.5402 20.455 94.5702 20.455 94.6002 20.455C94.6302 20.425 94.6602 20.41 94.6902 20.41C94.6902 20.41 94.7352 20.455 94.8252 20.545C94.8552 20.575 94.8852 20.59 94.9152 20.59C94.9452 20.56 94.9752 20.545 95.0052 20.545C95.0352 20.575 95.0502 20.605 95.0502 20.635C95.0502 20.665 95.0652 20.68 95.0952 20.68C95.1552 20.68 95.1702 20.68 95.1402 20.68C95.1402 20.65 95.1552 20.635 95.1852 20.635C95.2152 20.635 95.2302 20.665 95.2302 20.725C95.2302 20.785 95.2452 20.845 95.2752 20.905C95.2452 20.995 95.2152 21.1 95.1852 21.22C95.1852 21.31 95.1702 21.385 95.1402 21.445C94.8702 21.805 94.6602 21.985 94.5102 21.985C94.5102 22.015 94.4652 22.075 94.3752 22.165C94.2852 22.165 94.1802 22.195 94.0602 22.255C93.9402 22.315 93.8202 22.375 93.7002 22.435V22.57C93.7002 22.69 93.6552 22.75 93.5652 22.75C93.5052 22.72 93.4452 22.765 93.3852 22.885V22.93C93.4452 23.02 93.5502 23.065 93.7002 23.065L94.0152 23.11C94.0752 23.11 94.1052 23.095 94.1052 23.065C94.1352 23.035 94.1652 23.02 94.1952 23.02C94.2252 23.02 94.2402 23.035 94.2402 23.065C94.2402 23.065 94.2552 23.065 94.2852 23.065C94.3452 23.065 94.3902 23.05 94.4202 23.02C94.4502 22.99 94.4802 22.975 94.5102 22.975L94.9152 23.02C94.8252 22.87 94.7802 22.75 94.7802 22.66C94.7802 22.51 94.9152 22.42 95.1852 22.39C95.6052 22.39 95.9652 22.54 96.2652 22.84C96.3252 22.81 96.4002 22.81 96.4902 22.84C96.5802 22.87 96.6702 22.87 96.7602 22.84L96.9852 22.705L97.0302 22.75C97.1502 22.69 97.2252 22.66 97.2552 22.66C97.3152 22.66 97.3302 22.675 97.3002 22.705C97.3002 22.705 97.3152 22.705 97.3452 22.705C97.3452 22.705 97.3752 22.675 97.4352 22.615C97.4652 22.615 97.4952 22.63 97.5252 22.66C97.5852 22.66 97.6302 22.645 97.6602 22.615L97.7952 22.48H98.3352L98.3802 22.435C98.4402 22.405 98.5152 22.375 98.6052 22.345C98.7252 22.285 98.8302 22.255 98.9202 22.255C98.9202 22.225 98.9502 22.21 99.0102 22.21C99.0702 22.18 99.1152 22.165 99.1452 22.165H99.2352C99.3852 22.165 99.4602 22.21 99.4602 22.3C99.4602 22.39 99.4152 22.465 99.3252 22.525C99.2952 22.555 99.2502 22.57 99.1902 22.57C99.1302 22.54 99.0702 22.54 99.0102 22.57C98.8902 22.69 98.8002 22.75 98.7402 22.75C98.7102 22.75 98.6952 22.75 98.6952 22.75C98.6952 22.72 98.6802 22.705 98.6502 22.705C98.6202 22.705 98.5602 22.75 98.4702 22.84L98.1552 22.885H98.1102C98.0502 22.885 98.0202 22.915 98.0202 22.975C97.9002 22.975 97.7802 22.99 97.6602 23.02C97.5402 23.02 97.4202 23.035 97.3002 23.065L97.2552 23.11C97.2252 23.11 97.1952 23.125 97.1652 23.155C97.1352 23.155 97.0902 23.155 97.0302 23.155C96.9702 23.185 96.8052 23.2 96.5352 23.2C96.7152 23.44 96.8352 23.665 96.8952 23.875C96.9552 24.025 97.0002 24.265 97.0302 24.595C97.0902 24.895 97.1052 25.12 97.0752 25.27C97.0752 25.36 97.0452 25.39 96.9852 25.36C96.9252 25.3 96.8952 25.3 96.8952 25.36C96.8952 25.45 96.9252 25.51 96.9852 25.54C97.0752 25.54 97.1202 25.615 97.1202 25.765C97.1202 25.855 97.1052 25.975 97.0752 26.125C97.0452 26.245 97.0152 26.38 96.9852 26.53C96.9552 26.71 96.9102 26.905 96.8502 27.115C96.8202 27.295 96.7452 27.475 96.6252 27.655L96.4902 27.88V28.15C96.4902 28.39 96.4152 28.555 96.2652 28.645C96.1452 28.735 96.0552 28.84 95.9952 28.96C95.9352 29.14 95.8902 29.26 95.8602 29.32C95.8602 29.38 95.8002 29.5 95.6802 29.68C95.2902 30.28 94.8252 30.85 94.2852 31.39C93.7452 31.93 93.2202 32.425 92.7102 32.875C92.2602 33.265 91.6452 33.625 90.8652 33.955C90.1152 34.255 89.3802 34.405 88.6602 34.405ZM89.1102 33.595C89.2002 33.595 89.3802 33.58 89.6502 33.55C89.9202 33.49 90.2052 33.355 90.5052 33.145C90.5652 33.115 90.6252 33.13 90.6852 33.19C90.7452 33.25 90.8052 33.265 90.8652 33.235C91.0152 33.175 91.0752 33.13 91.0452 33.1C91.0152 33.07 91.0602 33.04 91.1802 33.01H91.2252C91.4052 33.01 91.4802 32.995 91.4502 32.965C91.4502 32.905 91.4652 32.83 91.4952 32.74C91.4952 32.65 91.5402 32.575 91.6302 32.515C91.7202 32.455 91.7952 32.41 91.8552 32.38C92.1852 32.11 92.5902 31.66 93.0702 31.03C93.5502 30.37 94.0302 29.71 94.5102 29.05C94.5402 28.99 94.5852 28.975 94.6452 29.005C94.7052 29.035 94.7502 29.035 94.7802 29.005C94.8102 28.975 94.8252 28.885 94.8252 28.735C94.8252 28.645 94.8702 28.51 94.9602 28.33C95.0502 28.12 95.1402 27.955 95.2302 27.835C95.2602 27.745 95.3202 27.58 95.4102 27.34C95.5002 27.07 95.5752 26.83 95.6352 26.62C95.7252 26.38 95.7402 26.26 95.6802 26.26C95.6202 26.23 95.5902 26.2 95.5902 26.17C95.5902 26.11 95.6802 26.05 95.8602 25.99C96.0402 25.93 96.0252 25.885 95.8152 25.855C95.7552 25.825 95.7702 25.765 95.8602 25.675C95.9502 25.585 95.9052 25.525 95.7252 25.495C95.5752 25.465 95.5152 25.42 95.5452 25.36C95.6052 25.3 95.6502 25.255 95.6802 25.225C95.7702 25.135 95.8152 25.045 95.8152 24.955C95.8152 24.685 95.7402 24.415 95.5902 24.145C95.4702 23.875 95.3352 23.635 95.1852 23.425C95.0052 23.545 94.9152 23.605 94.9152 23.605C94.8852 23.605 94.8702 23.605 94.8702 23.605C94.8702 23.575 94.8402 23.56 94.7802 23.56C94.7502 23.56 94.7352 23.56 94.7352 23.56C94.7352 23.53 94.7202 23.515 94.6902 23.515C94.6602 23.515 94.6302 23.53 94.6002 23.56C94.5702 23.59 94.5552 23.605 94.5552 23.605C94.5252 23.635 94.4652 23.65 94.3752 23.65C94.3152 23.65 94.2702 23.65 94.2402 23.65C94.2102 23.65 94.1802 23.635 94.1502 23.605C94.1502 23.575 94.1352 23.56 94.1052 23.56C94.0752 23.56 94.0302 23.59 93.9702 23.65C93.9402 23.71 93.8952 23.74 93.8352 23.74C93.8052 23.74 93.7902 23.725 93.7902 23.695C93.7902 23.665 93.7602 23.65 93.7002 23.65C93.6702 23.65 93.6402 23.665 93.6102 23.695C93.6102 23.725 93.5952 23.74 93.5652 23.74C93.5352 23.74 93.4752 23.695 93.3852 23.605H93.3402C93.3402 23.785 93.2952 23.875 93.2052 23.875C93.1752 23.875 93.1302 23.845 93.0702 23.785C92.7402 23.995 92.1852 24.49 91.4052 25.27C90.6252 26.02 89.9352 26.89 89.3352 27.88C89.2152 28.12 89.0652 28.405 88.8852 28.735C88.7352 29.065 88.6002 29.44 88.4802 29.86C88.4502 30.04 88.3602 30.175 88.2102 30.265C88.0902 30.355 88.0002 30.46 87.9402 30.58C87.9102 30.7 87.9252 30.775 87.9852 30.805C88.0452 30.835 88.0902 30.88 88.1202 30.94C88.1202 31.06 88.0902 31.225 88.0302 31.435C88.0002 31.645 87.9852 31.84 87.9852 32.02C87.9852 32.59 88.0902 32.995 88.3002 33.235C88.5402 33.475 88.8102 33.595 89.1102 33.595ZM100.241 33.91C99.9407 33.91 99.6257 33.85 99.2957 33.73C98.9657 33.58 98.8457 33.415 98.9357 33.235C99.0557 32.995 99.1907 32.755 99.3407 32.515C99.5207 32.245 99.6857 31.96 99.8357 31.66L100.331 30.715C100.391 30.565 100.451 30.46 100.511 30.4C100.601 30.31 100.676 30.205 100.736 30.085C100.766 30.055 100.781 29.98 100.781 29.86C100.781 29.71 100.841 29.545 100.961 29.365C101.111 29.155 101.216 28.96 101.276 28.78C101.306 28.75 101.336 28.84 101.366 29.05C101.396 29.26 101.471 29.245 101.591 29.005C101.621 28.975 101.606 28.93 101.546 28.87C101.516 28.81 101.501 28.75 101.501 28.69C101.501 28.63 101.516 28.6 101.546 28.6C101.606 28.57 101.636 28.54 101.636 28.51C101.666 28.42 101.636 28.39 101.546 28.42C101.486 28.42 101.456 28.405 101.456 28.375C101.516 28.285 101.576 28.225 101.636 28.195C101.726 28.165 101.786 28.12 101.816 28.06C101.816 28 101.786 27.97 101.726 27.97C101.696 27.94 101.696 27.91 101.726 27.88C101.876 27.46 102.041 26.965 102.221 26.395C102.401 25.825 102.536 25.3 102.626 24.82C102.626 24.82 102.596 24.805 102.536 24.775C102.476 24.715 102.446 24.655 102.446 24.595L102.131 24.37C101.771 24.7 101.381 24.985 100.961 25.225C100.931 25.255 100.871 25.27 100.781 25.27C100.661 25.27 100.586 25.21 100.556 25.09C100.526 24.97 100.571 24.865 100.691 24.775C100.841 24.685 100.961 24.625 101.051 24.595C101.141 24.535 101.246 24.445 101.366 24.325C101.426 24.265 101.456 24.205 101.456 24.145C101.486 24.085 101.516 24.025 101.546 23.965L101.726 23.74C101.726 23.59 101.756 23.47 101.816 23.38C101.876 23.32 101.921 23.29 101.951 23.29C101.981 23.29 101.996 23.29 101.996 23.29V23.2C101.996 23.08 102.041 23.005 102.131 22.975C102.251 22.945 102.311 22.9 102.311 22.84C102.371 22.42 102.731 22.105 103.391 21.895C104.051 21.685 104.636 21.58 105.146 21.58C105.656 21.58 105.911 21.655 105.911 21.805C105.911 21.895 105.821 22 105.641 22.12C105.551 22.18 105.401 22.315 105.191 22.525C104.981 22.735 104.786 22.99 104.606 23.29L104.291 23.83L103.976 24.235C103.766 24.715 103.466 25.45 103.076 26.44C102.686 27.43 102.281 28.675 101.861 30.175C101.951 30.055 102.161 29.8 102.491 29.41C102.821 29.02 103.211 28.57 103.661 28.06C104.111 27.55 104.546 27.07 104.966 26.62C105.386 26.14 105.731 25.765 106.001 25.495L106.226 25.36C106.286 25.3 106.346 25.225 106.406 25.135C106.496 25.015 106.571 24.925 106.631 24.865C106.661 24.835 106.676 24.895 106.676 25.045C106.706 25.165 106.736 25.21 106.766 25.18C106.886 25.09 106.946 24.955 106.946 24.775C106.976 24.595 107.051 24.475 107.171 24.415C107.501 24.145 107.951 23.77 108.521 23.29C109.121 22.78 109.736 22.48 110.366 22.39C110.426 22.33 110.516 22.315 110.636 22.345C110.786 22.345 110.891 22.33 110.951 22.3C111.011 22.3 111.056 22.285 111.086 22.255C111.116 22.225 111.191 22.21 111.311 22.21C111.371 22.21 111.491 22.255 111.671 22.345C111.881 22.435 112.001 22.555 112.031 22.705C112.211 22.825 112.301 23.005 112.301 23.245C112.301 23.665 112.076 23.98 111.626 24.19C111.476 24.34 111.311 24.49 111.131 24.64C110.951 24.76 110.771 24.895 110.591 25.045C110.531 25.105 110.486 25.135 110.456 25.135C110.246 25.315 110.066 25.51 109.916 25.72C109.766 25.93 109.691 26.2 109.691 26.53C109.691 26.56 109.721 26.605 109.781 26.665C109.841 26.695 109.856 26.725 109.826 26.755C109.916 26.845 110.051 26.905 110.231 26.935C110.411 26.935 110.591 26.935 110.771 26.935C111.071 26.935 111.521 26.815 112.121 26.575H112.211C112.241 26.575 112.256 26.59 112.256 26.62C112.256 26.68 112.196 26.785 112.076 26.935C111.956 27.055 111.821 27.145 111.671 27.205C111.341 27.325 110.996 27.4 110.636 27.43C110.276 27.43 110.021 27.43 109.871 27.43C109.331 27.43 108.986 27.325 108.836 27.115C108.716 26.905 108.596 26.65 108.476 26.35V26.125L108.701 25.9C108.671 25.81 108.626 25.72 108.566 25.63C108.506 25.54 108.476 25.435 108.476 25.315C108.476 25.015 108.596 24.67 108.836 24.28C108.506 24.37 108.086 24.625 107.576 25.045C107.096 25.435 106.601 25.9 106.091 26.44C105.581 26.95 105.116 27.46 104.696 27.97C104.276 28.45 103.946 28.84 103.706 29.14C103.616 29.26 103.511 29.335 103.391 29.365C103.301 29.365 103.226 29.41 103.166 29.5C103.136 29.53 103.166 29.545 103.256 29.545C103.376 29.545 103.421 29.56 103.391 29.59C103.001 30.19 102.581 30.85 102.131 31.57C101.711 32.29 101.291 32.995 100.871 33.685C100.781 33.835 100.571 33.91 100.241 33.91ZM107.301 46.78C106.851 46.78 106.461 46.735 106.131 46.645C105.921 46.585 105.711 46.51 105.501 46.42C105.291 46.33 105.066 46.225 104.826 46.105L104.736 46.06C104.616 46 104.481 45.91 104.331 45.79C104.181 45.7 104.031 45.625 103.881 45.565C103.761 45.535 103.596 45.445 103.386 45.295C103.236 45.175 103.146 45.055 103.116 44.935C103.056 44.815 103.071 44.74 103.161 44.71C103.191 44.71 103.236 44.725 103.296 44.755C103.356 44.815 103.416 44.86 103.476 44.89C103.536 44.92 103.611 44.965 103.701 45.025C103.761 45.085 103.821 45.13 103.881 45.16C104.031 45.22 104.166 45.265 104.286 45.295C104.376 45.355 104.481 45.415 104.601 45.475C104.871 45.595 105.066 45.67 105.186 45.7C105.306 45.73 105.486 45.76 105.726 45.79L106.311 45.835C107.901 45.955 109.236 45.655 110.316 44.935C111.366 44.215 112.251 43.45 112.971 42.64C113.061 42.4 113.151 42.175 113.241 41.965C113.361 41.785 113.481 41.635 113.601 41.515C113.631 41.485 113.661 41.5 113.691 41.56C113.751 41.65 113.796 41.68 113.826 41.65C113.886 41.56 113.916 41.41 113.916 41.2C113.946 41.02 114.006 40.885 114.096 40.795C114.126 40.765 114.156 40.795 114.186 40.885C114.246 40.975 114.291 41.005 114.321 40.975C114.381 40.915 114.411 40.795 114.411 40.615C114.441 40.435 114.471 40.33 114.501 40.3C114.801 39.88 115.071 39.49 115.311 39.13C115.551 38.77 115.821 38.335 116.121 37.825C116.391 37.405 116.706 36.865 117.066 36.205C117.456 35.575 117.801 34.99 118.101 34.45C118.401 33.97 118.626 33.46 118.776 32.92L118.911 32.425C119.061 31.855 119.361 31.075 119.811 30.085C120.291 29.065 120.846 27.97 121.476 26.8C122.136 25.6 122.796 24.46 123.456 23.38C123.606 23.2 123.726 23.05 123.816 22.93C123.906 22.81 124.041 22.66 124.221 22.48C124.281 22.45 124.401 22.315 124.581 22.075C124.761 21.835 124.941 21.595 125.121 21.355C125.331 21.085 125.451 20.935 125.481 20.905C126.351 20.185 127.311 19.615 128.361 19.195C129.441 18.745 130.281 18.52 130.881 18.52C131.121 18.52 131.286 18.52 131.376 18.52C131.496 18.49 131.646 18.49 131.826 18.52L132.141 18.565C132.261 18.595 132.366 18.64 132.456 18.7C132.576 18.73 132.696 18.76 132.816 18.79C132.876 18.82 132.951 18.865 133.041 18.925C133.131 18.985 133.206 19.03 133.266 19.06C133.386 19.15 133.446 19.255 133.446 19.375C133.446 19.465 133.416 19.525 133.356 19.555C133.326 19.585 133.281 19.585 133.221 19.555C133.191 19.495 133.146 19.465 133.086 19.465C133.026 19.465 132.966 19.45 132.906 19.42C132.846 19.39 132.786 19.36 132.726 19.33C132.606 19.33 132.501 19.315 132.411 19.285C132.321 19.255 132.231 19.225 132.141 19.195C132.021 19.165 131.916 19.15 131.826 19.15C131.736 19.15 131.661 19.15 131.601 19.15C131.481 19.15 131.361 19.165 131.241 19.195C131.211 19.195 131.121 19.21 130.971 19.24C130.851 19.24 130.761 19.255 130.701 19.285C129.321 19.615 128.196 20.245 127.326 21.175C126.456 22.105 125.676 23.05 124.986 24.01C124.866 24.16 124.701 24.355 124.491 24.595C124.311 24.805 124.191 24.94 124.131 25C124.101 25.06 123.966 25.27 123.726 25.63C123.486 25.96 123.246 26.305 123.006 26.665C122.796 26.995 122.676 27.175 122.646 27.205C122.616 27.235 122.556 27.25 122.466 27.25C122.406 27.25 122.361 27.265 122.331 27.295L121.251 29.455L120.801 30.31L120.216 31.48C119.916 32.05 119.646 32.635 119.406 33.235C119.166 33.805 118.971 34.36 118.821 34.9C118.731 35.11 118.686 35.35 118.686 35.62C118.686 35.89 118.611 36.055 118.461 36.115C118.371 36.145 118.296 36.1 118.236 35.98C118.176 35.86 118.146 35.965 118.146 36.295C118.206 36.325 118.206 36.385 118.146 36.475C118.116 36.565 118.101 36.64 118.101 36.7C118.131 36.76 118.146 36.85 118.146 36.97C118.146 37.12 118.086 37.255 117.966 37.375C117.876 37.495 117.801 37.63 117.741 37.78C117.681 37.9 117.606 37.93 117.516 37.87C117.426 37.84 117.351 37.825 117.291 37.825L117.246 37.915C117.246 38.005 117.291 38.215 117.381 38.545C117.381 38.725 117.291 38.815 117.111 38.815H116.976C116.946 39.445 116.826 39.82 116.616 39.94L116.301 40.165L116.211 40.345C116.031 40.705 115.896 40.87 115.806 40.84L115.671 41.2C115.641 41.29 115.566 41.365 115.446 41.425C115.356 41.485 115.281 41.56 115.221 41.65C115.221 41.68 115.206 41.695 115.176 41.695C115.176 41.695 115.176 41.71 115.176 41.74C115.176 42.1 115.011 42.46 114.681 42.82C114.381 43.18 114.066 43.495 113.736 43.765C113.676 43.885 113.601 44.005 113.511 44.125C113.421 44.245 113.316 44.35 113.196 44.44C113.046 44.59 112.866 44.68 112.656 44.71C112.476 44.74 112.296 44.83 112.116 44.98C112.056 45.01 112.026 45.085 112.026 45.205C112.056 45.355 112.041 45.445 111.981 45.475C111.321 45.895 110.556 46.21 109.686 46.42C108.816 46.66 108.021 46.78 107.301 46.78ZM114.816 33.955C114.426 33.955 114.096 33.73 113.826 33.28C113.556 32.8 113.481 32.44 113.601 32.2C113.631 32.14 113.661 32.065 113.691 31.975C113.751 31.855 113.796 31.78 113.826 31.75C113.886 31.69 113.916 31.675 113.916 31.705C113.946 31.705 113.976 31.69 114.006 31.66C114.036 31.6 114.021 31.555 113.961 31.525C113.931 31.465 113.931 31.42 113.961 31.39L114.501 29.365C114.501 29.335 114.516 29.305 114.546 29.275C114.576 29.245 114.591 29.215 114.591 29.185L114.681 28.375C114.681 28.345 114.711 28.345 114.771 28.375C114.831 28.375 114.876 28.36 114.906 28.33C114.966 28.18 114.951 28.105 114.861 28.105C114.771 28.105 114.726 28.09 114.726 28.06C114.756 27.82 114.801 27.655 114.861 27.565C114.921 27.475 114.966 27.325 114.996 27.115L115.131 26.35C115.131 26.38 115.146 26.5 115.176 26.71C115.206 26.89 115.281 26.98 115.401 26.98C115.551 26.98 115.596 26.95 115.536 26.89C115.476 26.83 115.431 26.755 115.401 26.665C115.371 26.515 115.401 26.395 115.491 26.305C115.521 26.275 115.581 26.335 115.671 26.485C115.761 26.605 115.806 26.665 115.806 26.665C115.836 26.605 115.851 26.53 115.851 26.44C115.851 26.35 115.821 26.29 115.761 26.26C115.641 26.17 115.506 26.11 115.356 26.08C115.236 26.02 115.176 25.96 115.176 25.9C115.176 25.81 115.191 25.72 115.221 25.63C115.221 25.6 115.236 25.57 115.266 25.54C115.296 25.51 115.311 25.48 115.311 25.45C115.311 25.39 115.281 25.36 115.221 25.36C115.191 25.36 115.176 25.345 115.176 25.315V24.865C115.176 24.775 115.176 24.685 115.176 24.595C115.176 24.475 115.146 24.355 115.086 24.235C114.996 24.025 114.861 23.845 114.681 23.695C114.501 23.545 114.276 23.47 114.006 23.47H113.961L113.871 23.56H113.781C113.571 23.71 113.331 23.86 113.061 24.01C112.821 24.13 112.611 24.22 112.431 24.28L112.341 24.325C112.311 24.355 112.266 24.37 112.206 24.37C112.086 24.37 111.996 24.31 111.936 24.19C111.906 24.07 111.951 23.995 112.071 23.965C112.311 23.815 112.566 23.695 112.836 23.605C113.106 23.515 113.346 23.38 113.556 23.2C113.616 23.05 113.766 22.93 114.006 22.84C114.066 22.78 114.111 22.765 114.141 22.795C114.171 22.825 114.201 22.84 114.231 22.84C114.381 22.84 114.471 22.795 114.501 22.705C114.561 22.585 114.606 22.555 114.636 22.615H115.086C115.746 22.615 116.256 22.885 116.616 23.425C116.976 23.935 117.141 24.625 117.111 25.495C117.111 25.525 117.066 25.57 116.976 25.63C116.916 25.66 116.886 25.705 116.886 25.765C116.886 25.795 116.916 25.81 116.976 25.81C117.066 25.78 117.111 25.795 117.111 25.855V26.035C117.111 26.305 117.096 26.455 117.066 26.485C117.006 27.145 116.856 27.835 116.616 28.555C116.406 29.245 116.181 29.92 115.941 30.58C115.851 30.58 115.791 30.625 115.761 30.715C115.731 30.805 115.686 30.85 115.626 30.85C115.536 30.85 115.446 30.82 115.356 30.76C115.296 30.67 115.266 30.67 115.266 30.76C115.266 30.88 115.326 30.97 115.446 31.03C115.566 31.06 115.641 31.09 115.671 31.12C115.701 31.15 115.761 31.165 115.851 31.165C115.941 31.165 116.031 31.135 116.121 31.075C116.211 31.015 116.301 30.955 116.391 30.895C116.541 30.775 116.736 30.61 116.976 30.4C117.246 30.16 117.486 29.95 117.696 29.77C117.906 29.56 118.011 29.455 118.011 29.455C117.951 29.395 117.996 29.335 118.146 29.275L118.371 29.005C118.401 28.855 118.491 28.69 118.641 28.51C118.791 28.33 118.926 28.225 119.046 28.195L119.136 28.015C119.166 28.015 119.196 28.03 119.226 28.06C119.256 28.06 119.286 28.045 119.316 28.015C119.346 28.015 119.346 27.985 119.316 27.925C119.316 27.865 119.331 27.835 119.361 27.835L119.586 27.52C119.646 27.34 119.706 27.235 119.766 27.205C119.736 27.115 119.766 27.055 119.856 27.025C119.916 27.025 119.976 27.04 120.036 27.07C120.126 27.07 120.171 27.01 120.171 26.89C120.171 26.83 120.186 26.755 120.216 26.665C120.246 26.545 120.321 26.5 120.441 26.53L120.486 26.44C120.486 26.41 120.546 26.365 120.666 26.305C120.786 26.215 120.861 26.155 120.891 26.125L121.116 25.81C121.206 25.66 121.296 25.585 121.386 25.585C121.476 25.555 121.536 25.54 121.566 25.54C121.596 25.54 121.611 25.57 121.611 25.63C121.611 25.84 121.506 26.05 121.296 26.26L120.936 26.665C120.906 26.695 120.876 26.71 120.846 26.71C120.816 26.71 120.786 26.74 120.756 26.8C120.726 26.83 120.696 26.875 120.666 26.935C120.636 26.995 120.606 27.055 120.576 27.115L120.216 27.52L117.786 30.4C117.516 30.7 117.336 30.895 117.246 30.985C117.186 31.075 117.096 31.21 116.976 31.39C116.946 31.42 116.901 31.42 116.841 31.39C116.781 31.36 116.721 31.375 116.661 31.435L116.616 31.705L116.391 31.93C116.361 31.96 116.376 31.975 116.436 31.975C116.526 31.975 116.556 31.99 116.526 32.02L115.896 33.1C115.566 33.67 115.206 33.955 114.816 33.955Z" fill="black"/>
</svg>
